<?xml version="1.0" encoding="utf-8"?>
<!-- Generator: Adobe Illustrator 25.4.1, SVG Export Plug-In . SVG Version: 6.00 Build 0)  -->
<svg version="1.1" xmlns="http://www.w3.org/2000/svg" xmlns:xlink="http://www.w3.org/1999/xlink" x="0px" y="0px"
	 viewBox="0 0 180 60" style="enable-background:new 0 0 180 60;" xml:space="preserve">
<style type="text/css">
	.st0{display:none;}
</style>
<g id="Capa_1" class="st0">
</g>
<g id="Capa_2" class="st0">
	
		<image style="display:inline;overflow:visible;" width="180" height="60" xlink:href="../../../Desktop/Firma1.jpg"  transform="matrix(1.2389 0 0 1.2167 0 -12)">
	</image>
</g>
<g id="Capa_4">
	<g>
		<path d="M31.8,15.5C31.8,15.4,31.8,15.4,31.8,15.5C31.8,15.4,31.8,15.4,31.8,15.5z"/>
		<path d="M95.1,37.5c-4.8,1-18.2,3.8-29.7,3.8c-11.5,0-7-12.6-7-12.6l0,0c0.9-2.7,1.9-6,2.7-8.3c1.6-4.9-2.6-6.5-8.6-2.3
			c-0.1,0-0.1,0.1-0.2,0.1c0,0,0-0.1,0-0.1c1.9-5.8-1.1-7.6-8.1-2.7c-0.3,0.2-0.5,0.4-0.8,0.6c0.6-1.9,1.2-3.8,1.7-5.4
			C48.1,2,42.3-0.9,31.8,6.5c-10.5,7.4-2.9,11.8,0,8.9c-0.1,0.1-1,0.8-2.1-1.7C28.5,11,40.4,4.9,42.3,5.8S37.5,24.1,36.2,27
			s-1.5,5.7,0,6.9c1.1,0.9,4.1-8,6.7-16.2c2.2-1.9,6-3.7,7.6-2.8c1.2,0.7-4.3,12-5.3,13.9c-0.9,2,0.1,4,1.1,4.8
			c0.9,0.7,3.4-7.4,5.3-13.2c2-1.8,5.1-3.5,6.9-2.7c1.1,0.5-3.1,9.4-3.7,11.1c0,0.1-0.1,0.3-0.1,0.4c-0.5,1.3-0.8,2.6-0.8,4.4
			c0.1,4.9,1.9,8.6,10.5,10.5C73,46.1,97,38.5,97,38.5S99.9,36.5,95.1,37.5z"/>
	</g>
	<path d="M67.5,28.7c-1.2-3.1-4.3-2.6-6.6,1.7s1.9,6.7,4.6,3.1c0.8-0.7,0.8-0.7,0.8,0.3c0,1,1.9,2.9,3.8,1.9c1.9-1,2.9-2.9,1.9-2.9
		s-1.9,1-2.9,1s-1,0-1-1.9s-1-1.9-1-1.9s-2.9,4.8-3.8,3.8c-1-1,0-3.8,1.9-4.8c1.9-1,1.9,0,1.9,0S67.7,29.4,67.5,28.7z"/>
	<path d="M92.4,28.7c-1.2-3.1-4.3-2.6-6.6,1.7c-2.3,4.3,1.9,6.7,4.6,3.1c0.8-0.7,0.8-0.7,0.8,0.3c0,1,1.9,2.9,3.8,1.9
		c1.9-1,2.9-2.9,1.9-2.9s-1.9,1-2.9,1s-1,0-1-1.9s-1-1.9-1-1.9s-2.9,4.8-3.8,3.8c-1-1,0-3.8,1.9-4.8s1.9,0,1.9,0
		S92.6,29.4,92.4,28.7z"/>
	<path d="M70.1,30.9c1,1,2.2-0.1,3-0.5c0.8-0.5-1.8,3.8,0,4.5c1.8,0.8,3,0.5,3.7-0.2c1-1,1-2.9,0-1.9c-1,1-2.9,1.9-2.9,1
		c0-1,1.9-2.9,2.9-3.8c0.7-0.7,0-2.9-1-1.9c-1,1-1.3,0.3-1.9-1c-1-1.9-1.9-1-1.9,0c0,1-1,3.8-1.9,2.9C69.1,29,69.1,30,70.1,30.9z"/>
	<g>
		<path d="M79.7,30c1,1,1,1,1.1,0.5c0.3-0.9-1.9,3.6-0.2,4.3c1.8,0.8,2.9,1,3.8,0s1-2.9,0-1.9c-1,1-2.9,1.9-2.9,1c0-1,1-3.8,1.9-4.8
			c0.7-0.7,0.3-2.5-1-1.9c-1.9,1-1.9,2.9-2.9,1.9S78.7,29,79.7,30z"/>
		<path d="M84.5,25.2c1,0,1-1,1-1.9s-0.9-1.3-1.9-1.1s-1,1.1-1,2.1C82.6,25.2,83.5,25.2,84.5,25.2z"/>
	</g>
	<path d="M83.6,46.1c0,1.4,2.3,1.1,2.6,0.5s1.3-0.5,0.3,1.4c-0.6,1.2,0,4.8,1.9,3.8c1.9-1,2.9-4.8,3.8-4.8s0,1.9,1,1
		c1-1,1-1.6,0-2.2c-1-0.6,1-0.6,0-1.6c-1-1-1.9-1-2.9,1c-1,1.9,0,1,0,1.9s-1.9,3.8-1.9,2.9s1-4.8,0-5.8c-1-1-1.9,0-2.9,1
		C84.5,46.1,83.6,45.2,83.6,46.1z"/>
	<path d="M99,44.5c-1.7-1.9-3.1-0.3-5,1.6c-1.9,1.9-1,5.8,1,5.8s3.8-1,4-2.5C99.3,47,100.2,45.8,99,44.5z M97.9,49
		c-1,1-3.8,2.9-3.8,1s4.8-5.2,4.8-3.8C98.8,47.1,98.8,48,97.9,49z"/>
	<path d="M140.3,44.5c-1.7-1.9-3.1-0.3-5,1.6c-1.9,1.9-1,5.8,1,5.8s3.8-1,4-2.5C140.6,47,141.5,45.8,140.3,44.5z M139.1,49
		c-1,1-3.8,2.9-3.8,1s4.8-5.2,4.8-3.8C140.1,47.1,140.1,48,139.1,49z"/>
	<path d="M99.7,45.2c-1,1,1,1.9,1,1.9s1.9-1.9,1.9-1c0,1-1.9,2.9-1,4.8c1,1.9,2.9,0,2.9-1.9c0-1.9,1.9-3.8,1.9-2.9
		c0,1-1.9,3.8,1,4.8c2.9,1,3.8-1,3.8-1.9c0-1-0.7-1.1-0.8-0.6c-0.1,0.6-2,1.5-2,0.6c0-1,1.7-4.9-0.6-5.3c-2.3-0.4-3.3,3.4-3.3,2.4
		c0-1,1-1.9-1-2.9"/>
	<path d="M111.4,30.8c-1.7-0.9,1.9,4.8,9.6,1.9c0,0,0.9,5.2-1,10.8s-1.9,13.2-0.9,14.2c0.9,1,1.9,0,1.9-2.9s1.2-7.4,2-9
		c0.9-1.6,3.7-11.2-0.1-13.1c0,0,7.7-3.8,12.5,0c0,0,0-5.1-6.7-4.5C121.9,28.9,115.2,32.7,111.4,30.8z"/>
	<path d="M126.3,36.1c0,0,2.3-2.3,1.8,0c-0.5,2.3-6.6,14.5-4.5,15.6s2.3-5.9,4.6-7.2c2.3-1.3,1.3,0.4,1.3,2.6c0,1.9,1.1,6.5,3.4,3.7
		c1.4-1.8,1.4-1.8,1.4-1.8s0-1-1,0c-1,1-1,1-1-1.9s0-5.7-1.9-4.8c-1.9,1-2.9,1-1.9-1c1-1.9,3.8-7.7,1.9-7.7S126,34.7,126.3,36.1z"/>
	<path d="M149.1,46.6c1.5-5.3,3.4-14.9,2.5-13.9s-4.1,3-2.9,3.8c1,0.7-0.9,6.1-1.6,8.1c0,0-0.1-0.1-0.1-0.1c-1.7-1.9-3.1-0.3-5,1.6
		s-1,5.8,1,5.8c1.2,0,2.3-0.4,3.1-1c0.4,1,1.4,1.9,2.6,1c2.6-1.9,3.9-1.9,1-1.9C147.7,50,148.3,49.3,149.1,46.6z M141.9,50
		c0-1.8,4-4.6,4.7-4.1c-0.5,1.7-0.7,2.5-0.8,3c0,0,0,0.1-0.1,0.1C144.8,50,141.9,51.9,141.9,50z"/>
	<g>
		<path d="M158.5,47.6c-0.1,0-0.1,0-0.2,0.1C158.6,47.6,158.7,47.6,158.5,47.6z"/>
		<path d="M156.1,48.8c-1.3,1.3-4.1,1.6-2.7-1.5c0,0,0.6,1.5,2.7-0.4c2.1-1.9,1.3-2.8-0.4-3.6c-1.7-0.8-5,2.4-5.1,5.5
			c0,3,3.4,4.1,5.5,1.9c1.8-1.9,2-2.8,2.3-3.1C157.9,47.7,156.9,48,156.1,48.8z M153.9,45.1c0.2-0.6,0.8-0.6,1.5-0.7
			c1-0.1-0.7,2.4-0.7,2.4C154,46.9,153.7,45.8,153.9,45.1z"/>
	</g>
</g>
</svg>
